<?xml version="1.0" standalone="no"?>
<!DOCTYPE svg PUBLIC "-//W3C//DTD SVG 20010904//EN"
 "http://www.w3.org/TR/2001/REC-SVG-20010904/DTD/svg10.dtd">
<svg version="1.0" xmlns="http://www.w3.org/2000/svg"
 width="308.000000pt" height="70.000000pt" viewBox="0 0 308.000000 70.000000"
 preserveAspectRatio="xMidYMid meet">

<g transform="translate(0.000000,70.000000) scale(0.100000,-0.100000)"
fill="#000000" stroke="none">
<path d="M260 661 c-84 -26 -157 -88 -202 -173 -19 -36 -23 -58 -23 -138 0
-80 4 -102 23 -138 54 -102 148 -168 255 -179 83 -9 107 0 107 40 0 18 -5 38
-11 44 -7 7 -5 15 6 27 14 13 15 19 5 31 -15 18 -51 20 -68 3 -9 -9 -9 -15 2
-27 12 -13 12 -24 2 -64 l-12 -48 -21 53 c-12 29 -25 83 -28 120 l-7 66 46 0
c29 0 60 8 81 21 l35 20 0 -20 c0 -11 -5 -30 -12 -42 -10 -20 -10 -21 5 -8 10
7 17 21 17 30 1 13 3 13 16 -4 20 -26 13 -148 -11 -195 -16 -32 -16 -32 7 -25
72 22 146 98 178 182 79 210 -79 435 -303 432 -34 0 -73 -4 -87 -8z m155 -154
c-4 -15 -1 -28 9 -36 18 -15 20 -48 7 -84 -11 -27 -41 -43 -51 -27 -3 6 -21
15 -39 20 -26 7 -36 5 -51 -10 -16 -16 -19 -16 -24 -3 -3 8 -6 26 -6 39 0 22
2 23 21 13 17 -9 23 -8 30 2 14 22 6 44 -19 47 -24 4 -25 6 -16 40 6 20 12 22
75 22 68 0 69 -1 64 -23z m-105 -67 c0 -5 -5 -10 -11 -10 -5 0 -7 5 -4 10 3 6
8 10 11 10 2 0 4 -4 4 -10z m175 -44 c-21 -32 -35 -34 -28 -3 8 32 24 50 36
38 5 -5 2 -19 -8 -35z m-140 -46 c-3 -5 -12 -10 -20 -10 -8 0 -17 5 -20 10 -4
6 5 10 20 10 15 0 24 -4 20 -10z m22 -25 c-4 -9 -19 -15 -36 -15 -30 0 -49 15
-36 28 4 4 10 1 12 -5 6 -18 28 -16 43 2 15 18 25 12 17 -10z"/>
<path d="M350 472 c-16 -7 -20 -33 -7 -43 11 -8 57 1 57 12 0 5 -8 9 -17 10
-10 0 -13 3 -6 5 7 3 22 0 35 -7 23 -12 23 -12 4 10 -19 21 -39 25 -66 13z"/>
<path d="M320 416 c0 -2 7 -9 15 -16 9 -7 15 -8 15 -2 0 5 -7 12 -15 16 -8 3
-15 4 -15 2z"/>
<path d="M990 365 l0 -135 25 0 c24 0 25 3 25 60 l0 60 55 0 55 0 0 -60 c0
-57 1 -60 25 -60 l25 0 0 135 0 135 -25 0 c-24 0 -25 -3 -25 -55 l0 -55 -55 0
-55 0 0 55 c0 52 -1 55 -25 55 l-25 0 0 -135z"/>
<path d="M2290 365 l0 -135 25 0 25 0 0 135 0 135 -25 0 -25 0 0 -135z"/>
<path d="M2546 485 c-9 -9 -16 -25 -16 -36 0 -19 -8 -23 -48 -19 -13 1 -30 -4
-38 -10 -10 -9 -14 -9 -14 -1 0 6 -11 11 -25 11 l-25 0 0 -100 c0 -98 0 -100
23 -100 22 0 24 6 33 73 8 64 11 72 32 75 13 2 26 10 29 18 4 11 7 11 19 -1
10 -9 14 -38 14 -89 0 -74 1 -76 25 -76 25 0 25 1 25 80 0 73 2 80 20 80 13 0
20 7 20 20 0 14 -7 20 -21 20 -27 0 -19 24 10 28 14 2 21 9 19 20 -4 23 -61
28 -82 7z"/>
<path d="M1284 420 c-12 -4 -24 -15 -27 -23 -7 -19 29 -30 53 -15 21 13 53 3
48 -15 -3 -6 -24 -16 -47 -21 -53 -12 -79 -45 -63 -81 14 -30 55 -42 90 -25
18 8 28 8 30 1 2 -6 14 -11 26 -11 22 0 23 2 18 83 -3 67 -8 85 -24 100 -21
18 -69 21 -104 7z m76 -109 c0 -27 -28 -47 -47 -35 -22 14 -19 27 8 41 33 17
39 16 39 -6z"/>
<path d="M1450 330 l0 -100 25 0 c24 0 25 3 25 54 0 75 14 108 43 104 20 -3
22 -9 25 -80 3 -75 4 -78 27 -78 24 0 25 2 25 69 0 72 14 99 45 87 12 -4 15
-23 15 -81 0 -73 1 -75 25 -75 25 0 25 1 25 84 0 64 -4 88 -16 100 -19 20 -54
21 -79 2 -16 -11 -22 -11 -46 3 -23 13 -34 14 -58 4 -17 -6 -31 -7 -31 -2 0 5
-11 9 -25 9 l-25 0 0 -100z"/>
<path d="M1770 410 c0 -17 7 -20 46 -20 l45 0 -45 -58 c-25 -32 -46 -68 -46
-80 0 -21 4 -22 85 -22 78 0 85 2 85 19 0 17 -8 20 -51 23 l-52 3 47 57 c25
31 46 66 46 77 0 20 -6 21 -80 21 -73 0 -80 -2 -80 -20z"/>
<path d="M2004 420 c-12 -4 -24 -15 -27 -23 -7 -19 29 -30 53 -15 21 13 53 3
48 -15 -3 -6 -24 -16 -47 -21 -53 -12 -79 -45 -63 -81 14 -30 55 -42 90 -25
18 8 28 8 30 1 2 -6 14 -11 26 -11 22 0 23 2 18 83 -3 67 -8 85 -24 100 -21
18 -69 21 -104 7z m76 -109 c0 -27 -28 -47 -47 -35 -22 14 -19 27 8 41 33 17
39 16 39 -6z"/>
<path d="M2684 420 c-12 -4 -24 -15 -27 -23 -7 -19 29 -30 53 -15 21 13 53 3
48 -15 -3 -6 -24 -16 -47 -21 -53 -12 -79 -45 -63 -81 14 -30 55 -42 90 -25
18 8 28 8 30 1 2 -6 14 -11 26 -11 22 0 23 2 18 83 -3 67 -8 85 -24 100 -21
18 -69 21 -104 7z m76 -109 c0 -27 -28 -47 -47 -35 -22 14 -19 27 8 41 33 17
39 16 39 -6z"/>
<path d="M2860 330 c0 -100 0 -100 25 -100 23 0 24 3 27 71 3 75 17 99 52 86
13 -5 16 -21 16 -82 0 -74 0 -75 25 -75 l26 0 -3 87 c-3 83 -4 88 -30 102 -23
13 -33 14 -60 3 -21 -8 -34 -9 -36 -2 -2 5 -12 10 -23 10 -17 0 -19 -8 -19
-100z"/>
<path d="M340 251 c0 -6 4 -13 10 -16 6 -3 7 1 4 9 -7 18 -14 21 -14 7z"/>
</g>
</svg>
